<svg width="16" height="15" viewBox="0 0 16 15" fill="none" xmlns="http://www.w3.org/2000/svg">
<g filter="url(#filter0_dd_3_7018)">
<path d="M18.2222 1.66667V13.3333H5.77778V1.66667H18.2222ZM18.2222 0H5.77778C4.8 0 4 0.75 4 1.66667V13.3333C4 14.25 4.8 15 5.77778 15H18.2222C19.2 15 20 14.25 20 13.3333V1.66667C20 0.75 19.2 0 18.2222 0Z" fill="#212121"/>
<path d="M18.7222 1.66667V1.16667H18.2222H5.77778H5.27778V1.66667V13.3333V13.8333H5.77778H18.2222H18.7222V13.3333V1.66667ZM5.77778 0.5H18.2222C18.9547 0.5 19.5 1.05605 19.5 1.66667V13.3333C19.5 13.944 18.9547 14.5 18.2222 14.5H5.77778C5.04525 14.5 4.5 13.944 4.5 13.3333V1.66667C4.5 1.05605 5.04525 0.5 5.77778 0.5Z" stroke="black"/>
</g>
<defs>
<filter id="filter0_dd_3_7018" x="0" y="0" width="24" height="23" filterUnits="userSpaceOnUse" color-interpolation-filters="sRGB">
<feFlood flood-opacity="0" result="BackgroundImageFix"/>
<feColorMatrix in="SourceAlpha" type="matrix" values="0 0 0 0 0 0 0 0 0 0 0 0 0 0 0 0 0 0 127 0" result="hardAlpha"/>
<feOffset dy="4"/>
<feGaussianBlur stdDeviation="2"/>
<feComposite in2="hardAlpha" operator="out"/>
<feColorMatrix type="matrix" values="0 0 0 0 0 0 0 0 0 0 0 0 0 0 0 0 0 0 0.25 0"/>
<feBlend mode="normal" in2="BackgroundImageFix" result="effect1_dropShadow_3_7018"/>
<feColorMatrix in="SourceAlpha" type="matrix" values="0 0 0 0 0 0 0 0 0 0 0 0 0 0 0 0 0 0 127 0" result="hardAlpha"/>
<feOffset dy="4"/>
<feGaussianBlur stdDeviation="2"/>
<feComposite in2="hardAlpha" operator="out"/>
<feColorMatrix type="matrix" values="0 0 0 0 0 0 0 0 0 0 0 0 0 0 0 0 0 0 0.25 0"/>
<feBlend mode="normal" in2="effect1_dropShadow_3_7018" result="effect2_dropShadow_3_7018"/>
<feBlend mode="normal" in="SourceGraphic" in2="effect2_dropShadow_3_7018" result="shape"/>
</filter>
</defs>
</svg>
